<?xml version="1.0"?>
<svg xmlns="http://www.w3.org/2000/svg" xmlns:xlink="http://www.w3.org/1999/xlink" xmlns:svgjs="http://svgjs.com/svgjs" version="1.1" width="512" height="512" x="0" y="0" viewBox="0 0 512 512" style="enable-background:new 0 0 512 512" xml:space="preserve" class=""><g transform="matrix(0.29,0,0,0.29,181.75992958068844,181.75998645782477)"><g xmlns="http://www.w3.org/2000/svg"><path d="m484.519 504.5h-332.019v-497h332.019c11.035 0 19.981 8.946 19.981 19.981v457.039c0 11.034-8.946 19.98-19.981 19.98z" fill="#f1f1f1" data-original="#f1f1f1" style="" class=""/><path d="m484.519 7.5h-30c11.035 0 19.981 8.946 19.981 19.981v457.039c0 11.035-8.946 19.981-19.981 19.981h30c11.035 0 19.981-8.946 19.981-19.981v-457.039c0-11.035-8.946-19.981-19.981-19.981z" fill="#e2e2e2" data-original="#e2e2e2" style="" class=""/><path d="m307.5 504.5h-300v-74.363c0-49.87 40.427-90.297 90.297-90.297h119.406c49.87 0 90.297 40.427 90.297 90.297z" fill="#42a5f5" data-original="#42a5f5" style="" class=""/><path d="m217.203 339.84h-30c49.87 0 90.297 40.427 90.297 90.297v74.363h30v-74.363c0-49.87-40.427-90.297-90.297-90.297z" fill="#2196f3" data-original="#2196f3" style="" class=""/><path d="m127.5 277.696h60v97.564h-60z" fill="#e8916f" data-original="#e8916f" style="" class=""/><g><path d="m71.964 182.575c0 19.865-12.18 35.968-27.205 35.968s-23.753-18.493-23.753-38.358 8.728-33.578 23.753-33.578 27.205 16.104 27.205 35.968z" fill="#e8916f" data-original="#e8916f" style="" class=""/><path d="m243.036 182.575c0 19.865 12.18 35.968 27.205 35.968s23.753-18.493 23.753-38.358-8.728-33.578-23.753-33.578-27.205 16.104-27.205 35.968z" fill="#d98868" data-original="#d98868" style="" class=""/></g><path d="m57.896 194.322v-73.978c0-51.88 42.057-93.938 93.938-93.938h11.332c51.88 0 93.938 42.057 93.938 93.938v73.978c0 54.974-44.565 99.539-99.539 99.539h-.13c-54.974 0-99.539-44.565-99.539-99.539z" fill="#ebad88" data-original="#ebad88" style="" class=""/><path d="m163.166 26.406h-11.332c-2.753 0-5.475.125-8.168.357 48.055 4.14 85.77 44.452 85.77 93.58v73.978c0 50.301-37.314 91.88-85.77 98.586 4.501.623 9.096.952 13.769.952h.13c54.974 0 99.539-44.565 99.539-99.539v-73.978c0-51.878-42.057-93.936-93.938-93.936z" fill="#e8916f" data-original="#e8916f" style="" class=""/><path d="m199.5 88.529s-9.562 52.941-110.744 39.355c-16.793-2.255-30.86 32.135-30.86 32.135s-11.93-6.149-17.025-38.489c-6.974-44.275 8.706-114.03 102.795-114.03 56.719 0 73.911 23.841 73.911 23.841s57.846-2.05 57.846 62.312c0 39.765-18.051 67.847-18.051 67.847s-5.16-14.275-27.936-31.976c-12.461-9.685-31.809-20.902-29.936-40.995z" fill="#d66d3c" data-original="#d66d3c" style=""/><g><path d="m217.577 31.341s-17.192-23.841-73.911-23.841c-5.141 0-10.034.22-14.716.621 24.147 2.029 39.336 8.673 48.186 14.337 7.912 5.063 16.699 8.56 25.814 10.828 17.137 4.265 42.472 17.773 42.472 60.367 0 17.036-3.315 31.916-7.102 43.374 15.279 14.062 19.051 24.473 19.051 24.473s18.051-28.081 18.051-67.847c.001-64.362-57.845-62.312-57.845-62.312z" fill="#c75d2d" data-original="#c75d2d" style=""/></g><g fill="#f1f1f1"><path d="m127.5 316.331s-2.871 39.777 30 58.929c0 0-18.691 20.871-37.598 14.241-14.98-5.253-23.457-33.195-26.331-44.574-.725-2.869.428-5.878 2.877-7.539z" fill="#f1f1f1" data-original="#f1f1f1" style="" class=""/><path d="m187.5 316.331s2.871 39.777-30 58.929c0 0 18.691 20.871 37.598 14.241 14.98-5.253 23.457-33.195 26.331-44.574.725-2.869-.428-5.878-2.877-7.539z" fill="#f1f1f1" data-original="#f1f1f1" style="" class=""/><circle cx="157.423" cy="431.272" r="18" fill="#f1f1f1" data-original="#f1f1f1" style="" class=""/></g><path d="m456.437 169h-83.875c-9.976 0-18.063-8.087-18.063-18.063v-83.874c0-9.976 8.087-18.063 18.063-18.063h83.875c9.976 0 18.063 8.087 18.063 18.063v83.875c0 9.975-8.087 18.062-18.063 18.062z" fill="#7be492" data-original="#7be492" style="" class=""/><path d="m456.437 316h-83.875c-9.976 0-18.063-8.087-18.063-18.063v-83.875c0-9.976 8.087-18.063 18.063-18.063h83.875c9.976 0 18.063 8.087 18.063 18.063v83.875c0 9.976-8.087 18.063-18.063 18.063z" fill="#7be492" data-original="#7be492" style="" class=""/><path d="m456.437 463h-83.875c-9.976 0-18.063-8.087-18.063-18.063v-83.875c0-9.976 8.087-18.063 18.063-18.063h83.875c9.976 0 18.063 8.087 18.063 18.063v83.875c0 9.976-8.087 18.063-18.063 18.063z" fill="#ef483c" data-original="#ef483c" style="" class=""/><g><path d="m484.52 0h-36.42c-4.143 0-7.5 3.358-7.5 7.5s3.357 7.5 7.5 7.5h36.42c6.882 0 12.48 5.599 12.48 12.48v457.04c0 6.881-5.599 12.48-12.48 12.48h-169.52v-66.86c0-25.441-9.72-49.539-27.368-67.853-16.793-17.426-39.073-27.858-63.052-29.642-.561-.53-1.166-1.022-1.818-1.464l-27.762-18.826v-17.755c31.411-11.765 55.865-37.888 65.333-70.341 3.184 1.173 6.512 1.781 9.907 1.781 18.107 0 31.25-19.283 31.25-45.85 0-22.607-10.067-37.967-26.075-40.657 4.012-12.105 7.508-27.825 7.508-45.879 0-22.277-6.449-39.797-19.17-52.075-15.163-14.636-34.744-17.236-42.783-17.665-2.263-2.263-6.053-5.525-11.727-8.914h206.873c4.143 0 7.5-3.358 7.5-7.5s-3.357-7.5-7.5-7.5h-272.45c-39.738 0-69.751 11.824-89.205 35.144-2.653 3.181-2.226 7.91.955 10.563 3.18 2.652 7.909 2.227 10.563-.955 16.47-19.742 42.607-29.752 77.687-29.752 50.354 0 67.053 19.775 67.858 20.772 1.452 2.101 3.762 3.166 6.318 3.064.205-.007 20.879-.571 35.493 13.535 9.679 9.342 14.587 23.232 14.587 41.282 0 22.521-6.219 41.216-11.103 52.427-4.617-6.121-11.803-13.946-22.782-22.478-1.648-1.28-3.349-2.541-5.15-3.875-13.563-10.049-23.075-18.119-21.92-30.501.373-4-2.464-7.624-6.444-8.168-3.987-.548-7.675 2.104-8.389 6.057-.094.458-2.444 11.333-15.578 20.948-22.94 16.792-59.867 16.005-86.802 12.389-15.267-2.051-27.084 14.065-33.605 25.918-2.716-4.982-5.838-13.113-7.869-26.006-2.694-17.107-1.375-34.914 3.716-50.141 1.313-3.928-.806-8.178-4.735-9.491-3.928-1.313-8.177.806-9.491 4.735-5.84 17.466-7.37 37.792-4.308 57.231 1.059 6.722 2.412 12.435 3.918 17.306-14.72 3.684-23.872 18.638-23.872 40.187 0 26.567 13.143 45.85 31.25 45.85 3.395 0 6.723-.609 9.907-1.781 9.47 32.452 33.924 58.575 65.335 70.34v17.755l-27.762 18.826c-.652.442-1.257.933-1.818 1.464-23.979 1.784-46.259 12.216-63.052 29.642-17.648 18.314-27.368 42.412-27.368 67.853v74.36c0 4.142 3.358 7.5 7.5 7.5h56.46c4.142 0 7.5-3.358 7.5-7.5s-3.358-7.5-7.5-7.5h-48.96v-66.86c0-21.54 8.229-41.94 23.169-57.445 13.069-13.561 30.057-22.132 48.479-24.602 9.381 36.034 23.27 45.855 30.772 48.486 3.458 1.212 6.87 1.731 10.182 1.73 12.521-.001 23.57-7.415 29.897-12.747 6.326 5.332 17.375 12.747 29.897 12.747 3.311 0 6.726-.519 10.182-1.73 7.503-2.631 21.393-12.452 30.773-48.486 18.421 2.47 35.409 11.041 48.479 24.602 14.941 15.505 23.17 35.906 23.17 57.445v66.86h-202.83c-4.142 0-7.5 3.358-7.5 7.5s3.358 7.5 7.5 7.5h387.35c15.152 0 27.48-12.328 27.48-27.48v-457.04c0-15.152-12.328-27.48-27.48-27.48zm-214.28 154.11c7.855 0 16.25 6.851 16.25 26.08 0 15.165-6.078 30.85-16.25 30.85-2.587 0-4.837-.766-6.691-1.763.687-4.89 1.05-9.882 1.05-14.958v-30.277c1.066-1.815 2.937-5.195 5.094-9.914.183-.006.364-.018.547-.018zm-196.879-6.977c5.36-7.889 10.734-12.298 14.397-11.815 44.012 5.911 77.28.504 98.878-16.066 4.239-3.252 7.612-6.653 10.291-9.94 5.724 9.644 15.261 16.71 23.032 22.467 1.73 1.282 3.364 2.492 4.875 3.667 16.276 12.649 22.788 23.291 24.766 27.099v12.043c-6.503-17.676-23.51-30.318-43.414-30.318-22.943 0-42.028 16.799-45.623 38.741h-6.125c-3.595-21.942-22.68-38.741-45.623-38.741-19.905 0-36.912 12.643-43.415 30.319v-13.02c1.155-2.585 4.028-8.649 7.961-14.436zm164.065 43.377c0 17.226-14.014 31.24-31.24 31.24s-31.241-14.014-31.241-31.24 14.015-31.241 31.241-31.241 31.24 14.015 31.24 31.241zm-97.371 0c0 17.226-14.015 31.24-31.241 31.24s-31.24-14.014-31.24-31.24 14.014-31.241 31.24-31.241 31.241 14.015 31.241 31.241zm-95.295 20.53c-10.172 0-16.25-15.686-16.25-30.85 0-18.036 7.385-25.182 14.784-25.999 2.543 4.543 5.064 7.535 7.106 9.467v30.662c0 5.076.363 10.068 1.05 14.958-1.854.997-4.103 1.762-6.69 1.762zm21.892-1.581c7.252 16.072 23.416 27.291 42.163 27.291 22.943 0 42.028-16.799 45.623-38.74h6.125c3.595 21.942 22.68 38.74 45.623 38.74 18.746 0 34.91-11.219 42.162-27.29-7.242 43.572-45.188 76.899-90.778 76.899h-.14c-45.59.001-83.537-33.328-90.778-76.9zm90.778 91.901h.14c7.692 0 15.194-.823 22.43-2.372v22.557c-.448 9.532-3.638 31.426-22.503 44.783-18.849-13.311-22.066-34.867-22.509-44.544.002-.078.012-.155.012-.234v-22.562c7.236 1.549 14.738 2.372 22.43 2.372zm-35.046 81.063c-7.694-2.698-16.104-17.995-21.459-39.009l19.801-13.427c1.799 12.962 7.471 32.132 24.654 46.013-5.873 4.413-14.798 9.299-22.996 6.423zm70.232 0c-8.2 2.875-17.127-2.013-22.996-6.423 17.183-13.881 22.855-33.051 24.655-46.013l19.801 13.427c-5.355 21.015-13.764 36.311-21.46 39.009z" fill="#000000" data-original="#000000" style="" class=""/><path d="m173.347 249.352c3.99-1.114 6.321-5.251 5.207-9.241s-5.25-6.321-9.241-5.207c-7.065 1.973-16.56 1.973-23.625 0-3.991-1.114-8.126 1.217-9.241 5.207s1.217 8.126 5.207 9.241c4.887 1.365 10.367 2.047 15.847 2.047s10.958-.683 15.846-2.047z" fill="#000000" data-original="#000000" style="" class=""/><path d="m108 190c0 4.142 3.358 7.5 7.5 7.5s7.5-3.358 7.5-7.5v-6c0-4.142-3.358-7.5-7.5-7.5s-7.5 3.358-7.5 7.5z" fill="#000000" data-original="#000000" style="" class=""/><path d="m199.5 176.5c-4.142 0-7.5 3.358-7.5 7.5v6c0 4.142 3.358 7.5 7.5 7.5s7.5-3.358 7.5-7.5v-6c0-4.142-3.358-7.5-7.5-7.5z" fill="#000000" data-original="#000000" style="" class=""/><path d="m182.923 431.272c0-14.061-11.439-25.5-25.5-25.5s-25.5 11.439-25.5 25.5 11.439 25.5 25.5 25.5 25.5-11.439 25.5-25.5zm-36 0c0-5.79 4.71-10.5 10.5-10.5s10.5 4.71 10.5 10.5-4.71 10.5-10.5 10.5-10.5-4.71-10.5-10.5z" fill="#000000" data-original="#000000" style="" class=""/><path d="m482 67.063c0-14.095-11.468-25.563-25.563-25.563h-83.875c-14.094 0-25.562 11.467-25.562 25.563v83.875c0 14.095 11.468 25.563 25.563 25.563h83.875c14.095 0 25.563-11.467 25.563-25.563v-83.875zm-15 83.875c0 5.824-4.738 10.563-10.563 10.563h-83.875c-5.824 0-10.563-4.738-10.563-10.563v-83.875c0-5.824 4.738-10.563 10.563-10.563h83.875c5.824 0 10.563 4.738 10.563 10.563z" fill="#000000" data-original="#000000" style="" class=""/><path d="m482 214.063c0-14.095-11.468-25.563-25.563-25.563h-83.875c-14.095 0-25.563 11.467-25.563 25.563v83.875c0 14.095 11.468 25.563 25.563 25.563h83.875c14.095 0 25.563-11.467 25.563-25.563zm-15 83.875c0 5.824-4.738 10.563-10.563 10.563h-83.875c-5.824 0-10.563-4.738-10.563-10.563v-83.875c0-5.824 4.738-10.563 10.563-10.563h83.875c5.824 0 10.563 4.738 10.563 10.563z" fill="#000000" data-original="#000000" style="" class=""/><path d="m456.438 335.5h-83.875c-14.095 0-25.563 11.467-25.563 25.563v83.875c0 14.095 11.468 25.563 25.563 25.563h83.875c14.095 0 25.563-11.467 25.563-25.563v-83.875c-.001-14.096-11.469-25.563-25.563-25.563zm10.562 109.438c0 5.824-4.738 10.563-10.563 10.563h-83.875c-5.824 0-10.563-4.738-10.563-10.563v-83.875c0-5.824 4.738-10.563 10.563-10.563h83.875c5.824 0 10.563 4.738 10.563 10.563z" fill="#000000" data-original="#000000" style="" class=""/><path d="m450.104 84.476c-3.093-2.755-7.834-2.48-10.589.612l-29.19 32.773-18.619-14.409c-3.276-2.535-7.985-1.935-10.521 1.341-2.535 3.276-1.935 7.986 1.342 10.521l24.154 18.693c1.361 1.054 2.979 1.569 4.587 1.569 2.071 0 4.128-.854 5.604-2.512l33.846-38c2.753-3.092 2.478-7.833-.614-10.588z" fill="#000000" data-original="#000000" style="" class=""/><path d="m450.104 231.399c-3.093-2.755-7.834-2.48-10.589.612l-29.19 32.773-18.619-14.409c-3.276-2.534-7.985-1.936-10.521 1.341-2.535 3.276-1.935 7.986 1.342 10.521l24.154 18.693c1.361 1.054 2.979 1.569 4.587 1.569 2.071 0 4.128-.854 5.604-2.512l33.846-38c2.753-3.092 2.478-7.833-.614-10.588z" fill="#000000" data-original="#000000" style="" class=""/><path d="m434.5 395.5h-40c-4.143 0-7.5 3.358-7.5 7.5s3.357 7.5 7.5 7.5h40c4.143 0 7.5-3.358 7.5-7.5s-3.357-7.5-7.5-7.5z" fill="#000000" data-original="#000000" style="" class=""/></g></g></g></svg>
